# xmcd
#
# Track frame offsets:
#	150
#	15950
#	29448
#	46185
#	60363
#	74821
#	87955
#	100076
#	114899
#	130021
#	145202
#	161770
#	177827
#	193471
#	209606
#
# Disc length: 2981 seconds
#
# Revision: 1
# Processed by: cddbd v1.5.2PL0 Copyright (c) Steve Scherf et al.
# Submitted via: audiograbber 1.83.01
#
DISCID=cf0ba30f
DTITLE=Gian and Giovani - Perigo
DYEAR=2009
DGENRE=Sertanejo
TTITLE0=perigo
TTITLE1=só depende de nós
TTITLE2=só penso em nós
TTITLE3=meu fogo, meu ar
TTITLE4=fonte de desejos
TTITLE5=vou tocar o movimento
TTITLE6=nem na bebedeira
TTITLE7=se é amor
TTITLE8=quando a gente ama, tem jeito
TTITLE9=ok
TTITLE10=me proteja
TTITLE11=alma de beija-flor
TTITLE12=não casa com ele
TTITLE13=sai dessa coração
TTITLE14=arrepiou, arrepiou
EXTD=
EXTT0=
EXTT1=
EXTT2=
EXTT3=
EXTT4=
EXTT5=
EXTT6=
EXTT7=
EXTT8=
EXTT9=
EXTT10=
EXTT11=
EXTT12=
EXTT13=
EXTT14=
PLAYORDER=
